<?xml version="1.0" encoding="UTF-8"?>
<!--Generator: Apple Native CoreSVG 175-->
<!DOCTYPE svg
PUBLIC "-//W3C//DTD SVG 1.1//EN"
       "http://www.w3.org/Graphics/SVG/1.1/DTD/svg11.dtd">
<svg version="1.1" xmlns="http://www.w3.org/2000/svg" xmlns:xlink="http://www.w3.org/1999/xlink" width="3300" height="2200">
 <!--glyph: "uni100304.medium", point size: 100.0, font version: "17.0d12e1", template writer version: "65.1"-->
 <g id="Notes">
  <rect height="2200" id="artboard" style="fill:white;opacity:1" width="3300" x="0" y="0"/>
  <line style="fill:none;stroke:black;opacity:1;stroke-width:0.5;" x1="263" x2="3036" y1="292" y2="292"/>
  <text style="stroke:none;fill:black;font-family:sans-serif;font-size:13;font-weight:bold;" transform="matrix(1 0 0 1 263 322)">Weight/Scale Variations</text>
  <text style="stroke:none;fill:black;font-family:sans-serif;font-size:13;text-anchor:middle;" transform="matrix(1 0 0 1 559.711 322)">Ultralight</text>
  <text style="stroke:none;fill:black;font-family:sans-serif;font-size:13;text-anchor:middle;" transform="matrix(1 0 0 1 856.422 322)">Thin</text>
  <text style="stroke:none;fill:black;font-family:sans-serif;font-size:13;text-anchor:middle;" transform="matrix(1 0 0 1 1153.13 322)">Light</text>
  <text style="stroke:none;fill:black;font-family:sans-serif;font-size:13;text-anchor:middle;" transform="matrix(1 0 0 1 1449.84 322)">Regular</text>
  <text style="stroke:none;fill:black;font-family:sans-serif;font-size:13;text-anchor:middle;" transform="matrix(1 0 0 1 1746.56 322)">Medium</text>
  <text style="stroke:none;fill:black;font-family:sans-serif;font-size:13;text-anchor:middle;" transform="matrix(1 0 0 1 2043.27 322)">Semibold</text>
  <text style="stroke:none;fill:black;font-family:sans-serif;font-size:13;text-anchor:middle;" transform="matrix(1 0 0 1 2339.98 322)">Bold</text>
  <text style="stroke:none;fill:black;font-family:sans-serif;font-size:13;text-anchor:middle;" transform="matrix(1 0 0 1 2636.69 322)">Heavy</text>
  <text style="stroke:none;fill:black;font-family:sans-serif;font-size:13;text-anchor:middle;" transform="matrix(1 0 0 1 2933.4 322)">Black</text>
  <line style="fill:none;stroke:black;opacity:1;stroke-width:0.5;" x1="263" x2="3036" y1="1903" y2="1903"/>
  <g transform="matrix(1 0 0 1 263 1933)">
   <path d="M9.24805 0.830078Q10.8691 0.830078 12.2949 0.214844Q13.7207-0.400391 14.8096-1.49414Q15.8984-2.58789 16.5186-4.01367Q17.1387-5.43945 17.1387-7.05078Q17.1387-8.66211 16.5186-10.0879Q15.8984-11.5137 14.8047-12.6074Q13.7109-13.7012 12.2852-14.3164Q10.8594-14.9316 9.23828-14.9316Q7.62695-14.9316 6.20117-14.3164Q4.77539-13.7012 3.69141-12.6074Q2.60742-11.5137 1.9873-10.0879Q1.36719-8.66211 1.36719-7.05078Q1.36719-5.43945 1.9873-4.01367Q2.60742-2.58789 3.69629-1.49414Q4.78516-0.400391 6.21094 0.214844Q7.63672 0.830078 9.24805 0.830078ZM9.24805-0.654297Q7.91992-0.654297 6.7627-1.14746Q5.60547-1.64062 4.73145-2.51953Q3.85742-3.39844 3.36426-4.56055Q2.87109-5.72266 2.87109-7.05078Q2.87109-8.37891 3.35938-9.54102Q3.84766-10.7031 4.72168-11.582Q5.5957-12.4609 6.75293-12.9541Q7.91016-13.4473 9.23828-13.4473Q10.5762-13.4473 11.7334-12.9541Q12.8906-12.4609 13.7695-11.582Q14.6484-10.7031 15.1465-9.54102Q15.6445-8.37891 15.6445-7.05078Q15.6445-5.72266 15.1514-4.56055Q14.6582-3.39844 13.7842-2.51953Q12.9102-1.64062 11.748-1.14746Q10.5859-0.654297 9.24805-0.654297ZM5.6543-7.05078Q5.6543-6.72852 5.85938-6.52832Q6.06445-6.32812 6.40625-6.32812L8.51562-6.32812L8.51562-4.20898Q8.51562-3.88672 8.71094-3.67676Q8.90625-3.4668 9.23828-3.4668Q9.56055-3.4668 9.77051-3.67676Q9.98047-3.88672 9.98047-4.20898L9.98047-6.32812L12.0898-6.32812Q12.4219-6.32812 12.627-6.52832Q12.832-6.72852 12.832-7.05078Q12.832-7.38281 12.627-7.58789Q12.4219-7.79297 12.0898-7.79297L9.98047-7.79297L9.98047-9.90234Q9.98047-10.2344 9.77051-10.4443Q9.56055-10.6543 9.23828-10.6543Q8.90625-10.6543 8.71094-10.4443Q8.51562-10.2344 8.51562-9.90234L8.51562-7.79297L6.40625-7.79297Q6.06445-7.79297 5.85938-7.58789Q5.6543-7.38281 5.6543-7.05078Z"/>
  </g>
  <g transform="matrix(1 0 0 1 281.867 1933)">
   <path d="M11.709 2.91016Q13.75 2.91016 15.5518 2.12891Q17.3535 1.34766 18.7305-0.0292969Q20.1074-1.40625 20.8887-3.20801Q21.6699-5.00977 21.6699-7.05078Q21.6699-9.0918 20.8887-10.8936Q20.1074-12.6953 18.7305-14.0723Q17.3535-15.4492 15.5469-16.2305Q13.7402-17.0117 11.6992-17.0117Q9.6582-17.0117 7.85645-16.2305Q6.05469-15.4492 4.68262-14.0723Q3.31055-12.6953 2.5293-10.8936Q1.74805-9.0918 1.74805-7.05078Q1.74805-5.00977 2.5293-3.20801Q3.31055-1.40625 4.6875-0.0292969Q6.06445 1.34766 7.86621 2.12891Q9.66797 2.91016 11.709 2.91016ZM11.709 1.25Q9.98047 1.25 8.47656 0.605469Q6.97266-0.0390625 5.83496-1.17676Q4.69727-2.31445 4.05762-3.81836Q3.41797-5.32227 3.41797-7.05078Q3.41797-8.7793 4.05762-10.2832Q4.69727-11.7871 5.83008-12.9297Q6.96289-14.0723 8.4668-14.7119Q9.9707-15.3516 11.6992-15.3516Q13.4277-15.3516 14.9316-14.7119Q16.4355-14.0723 17.5781-12.9297Q18.7207-11.7871 19.3652-10.2832Q20.0098-8.7793 20.0098-7.05078Q20.0098-5.32227 19.3701-3.81836Q18.7305-2.31445 17.5928-1.17676Q16.4551-0.0390625 14.9463 0.605469Q13.4375 1.25 11.709 1.25ZM7.17773-7.05078Q7.17773-6.69922 7.41211-6.47461Q7.64648-6.25 8.01758-6.25L10.8887-6.25L10.8887-3.36914Q10.8887-2.99805 11.1133-2.76855Q11.3379-2.53906 11.6895-2.53906Q12.0605-2.53906 12.29-2.76855Q12.5195-2.99805 12.5195-3.36914L12.5195-6.25L15.4004-6.25Q15.7715-6.25 16.001-6.47461Q16.2305-6.69922 16.2305-7.05078Q16.2305-7.42188 16.001-7.65137Q15.7715-7.88086 15.4004-7.88086L12.5195-7.88086L12.5195-10.752Q12.5195-11.1328 12.29-11.3623Q12.0605-11.5918 11.6895-11.5918Q11.3379-11.5918 11.1133-11.3574Q10.8887-11.123 10.8887-10.752L10.8887-7.88086L8.01758-7.88086Q7.63672-7.88086 7.40723-7.65137Q7.17773-7.42188 7.17773-7.05078Z"/>
  </g>
  <g transform="matrix(1 0 0 1 305.646 1933)">
   <path d="M14.9707 5.66406Q17.0605 5.66406 18.96 5.01465Q20.8594 4.36523 22.4512 3.19336Q24.043 2.02148 25.2197 0.429688Q26.3965-1.16211 27.0459-3.06641Q27.6953-4.9707 27.6953-7.05078Q27.6953-9.14062 27.0459-11.04Q26.3965-12.9395 25.2197-14.5312Q24.043-16.123 22.4512-17.2998Q20.8594-18.4766 18.9551-19.126Q17.0508-19.7754 14.9609-19.7754Q12.8711-19.7754 10.9717-19.126Q9.07227-18.4766 7.48535-17.2998Q5.89844-16.123 4.72168-14.5312Q3.54492-12.9395 2.90039-11.04Q2.25586-9.14062 2.25586-7.05078Q2.25586-4.9707 2.90527-3.06641Q3.55469-1.16211 4.72656 0.429688Q5.89844 2.02148 7.49023 3.19336Q9.08203 4.36523 10.9814 5.01465Q12.8809 5.66406 14.9707 5.66406ZM14.9707 3.84766Q13.1641 3.84766 11.5283 3.2959Q9.89258 2.74414 8.53516 1.74805Q7.17773 0.751953 6.17676-0.610352Q5.17578-1.97266 4.62891-3.6084Q4.08203-5.24414 4.08203-7.05078Q4.08203-8.86719 4.62891-10.5029Q5.17578-12.1387 6.17188-13.501Q7.16797-14.8633 8.52539-15.8594Q9.88281-16.8555 11.5186-17.4023Q13.1543-17.9492 14.9609-17.9492Q16.7773-17.9492 18.4131-17.4023Q20.0488-16.8555 21.4111-15.8594Q22.7734-14.8633 23.7695-13.501Q24.7656-12.1387 25.3174-10.5029Q25.8691-8.86719 25.8691-7.05078Q25.8789-5.24414 25.332-3.6084Q24.7852-1.97266 23.7842-0.610352Q22.7832 0.751953 21.4209 1.74805Q20.0586 2.74414 18.4229 3.2959Q16.7871 3.84766 14.9707 3.84766ZM9.19922-7.05078Q9.19922-6.66992 9.45801-6.4209Q9.7168-6.17188 10.1172-6.17188L14.0625-6.17188L14.0625-2.2168Q14.0625-1.81641 14.3115-1.55762Q14.5605-1.29883 14.9512-1.29883Q15.3516-1.29883 15.6104-1.55273Q15.8691-1.80664 15.8691-2.2168L15.8691-6.17188L19.8242-6.17188Q20.2246-6.17188 20.4785-6.4209Q20.7324-6.66992 20.7324-7.05078Q20.7324-7.46094 20.4785-7.71484Q20.2246-7.96875 19.8242-7.96875L15.8691-7.96875L15.8691-11.9141Q15.8691-12.3242 15.6104-12.583Q15.3516-12.8418 14.9512-12.8418Q14.5605-12.8418 14.3115-12.583Q14.0625-12.3242 14.0625-11.9141L14.0625-7.96875L10.1172-7.96875Q9.70703-7.96875 9.45312-7.71484Q9.19922-7.46094 9.19922-7.05078Z"/>
  </g>
  <text style="stroke:none;fill:black;font-family:sans-serif;font-size:13;font-weight:bold;" transform="matrix(1 0 0 1 263 1953)">Design Variations</text>
  <text style="stroke:none;fill:black;font-family:sans-serif;font-size:13;" transform="matrix(1 0 0 1 263 1971)">Symbols are supported in up to nine weights and three scales.</text>
  <text style="stroke:none;fill:black;font-family:sans-serif;font-size:13;" transform="matrix(1 0 0 1 263 1989)">For optimal layout with text and other symbols, vertically align</text>
  <text style="stroke:none;fill:black;font-family:sans-serif;font-size:13;" transform="matrix(1 0 0 1 263 2007)">symbols with the adjacent text.</text>
  <line style="fill:none;stroke:#00AEEF;stroke-width:0.5;opacity:1.0;" x1="776" x2="776" y1="1919" y2="1933"/>
  <g transform="matrix(1 0 0 1 776 1933)">
   <path d="M3.31055 0.15625Q3.70117 0.15625 3.91602-0.00976562Q4.13086-0.175781 4.26758-0.585938L5.52734-4.0332L11.2891-4.0332L12.5488-0.585938Q12.6855-0.175781 12.9004-0.00976562Q13.1152 0.15625 13.4961 0.15625Q13.8867 0.15625 14.1162-0.0585938Q14.3457-0.273438 14.3457-0.644531Q14.3457-0.869141 14.2383-1.17188L9.6582-13.3691Q9.48242-13.8184 9.17969-14.043Q8.87695-14.2676 8.4082-14.2676Q7.5-14.2676 7.17773-13.3789L2.59766-1.16211Q2.49023-0.859375 2.49023-0.634766Q2.49023-0.263672 2.70996-0.0537109Q2.92969 0.15625 3.31055 0.15625ZM6.00586-5.51758L8.37891-12.0898L8.42773-12.0898L10.8008-5.51758Z"/>
  </g>
  <line style="fill:none;stroke:#00AEEF;stroke-width:0.5;opacity:1.0;" x1="793.197" x2="793.197" y1="1919" y2="1933"/>
  <text style="stroke:none;fill:black;font-family:sans-serif;font-size:13;font-weight:bold;" transform="matrix(1 0 0 1 776 1953)">Margins</text>
  <text style="stroke:none;fill:black;font-family:sans-serif;font-size:13;" transform="matrix(1 0 0 1 776 1971)">Leading and trailing margins on the left and right side of each symbol</text>
  <text style="stroke:none;fill:black;font-family:sans-serif;font-size:13;" transform="matrix(1 0 0 1 776 1989)">can be adjusted by modifying the x-location of the margin guidelines.</text>
  <text style="stroke:none;fill:black;font-family:sans-serif;font-size:13;" transform="matrix(1 0 0 1 776 2007)">Modifications are automatically applied proportionally to all</text>
  <text style="stroke:none;fill:black;font-family:sans-serif;font-size:13;" transform="matrix(1 0 0 1 776 2025)">scales and weights.</text>
  <g transform="matrix(1 0 0 1 1289 1933)">
   <path d="M2.8418 1.86523L4.54102 3.57422Q5.18555 4.22852 5.90332 4.17969Q6.62109 4.13086 7.31445 3.35938L18.0078-8.42773L17.041-9.4043L6.42578 2.27539Q6.16211 2.57812 5.89355 2.61719Q5.625 2.65625 5.27344 2.30469L4.10156 1.14258Q3.75 0.791016 3.79395 0.522461Q3.83789 0.253906 4.14062-0.0195312L15.6152-10.8203L14.6387-11.7871L3.04688-0.898438Q2.30469-0.214844 2.25098 0.498047Q2.19727 1.21094 2.8418 1.86523ZM9.25781-16.3281Q8.94531-16.0254 8.90625-15.6348Q8.86719-15.2441 9.04297-14.9512Q9.21875-14.6777 9.55566-14.541Q9.89258-14.4043 10.3809-14.5215Q11.4746-14.7754 12.5977-14.7314Q13.7207-14.6875 14.7949-13.9844L14.209-12.5293Q13.9551-11.9043 14.0674-11.4404Q14.1797-10.9766 14.5801-10.5664L16.875-8.25195Q17.2363-7.88086 17.5781-7.82227Q17.9199-7.76367 18.3398-7.8418L19.4043-8.03711L20.0684-7.36328L20.0293-6.80664Q20-6.43555 20.1221-6.12305Q20.2441-5.81055 20.6055-5.44922L21.3672-4.70703Q21.7285-4.3457 22.1533-4.33105Q22.5781-4.31641 22.9297-4.66797L25.8398-7.58789Q26.1914-7.93945 26.1816-8.35449Q26.1719-8.76953 25.8105-9.13086L25.0391-9.89258Q24.6875-10.2539 24.3799-10.3857Q24.0723-10.5176 23.7109-10.4883L23.1348-10.4395L22.4902-11.0742L22.7344-12.1973Q22.832-12.6172 22.6953-12.9834Q22.5586-13.3496 22.1191-13.7891L19.9219-15.9766Q18.6719-17.2168 17.2607-17.8369Q15.8496-18.457 14.4189-18.4814Q12.9883-18.5059 11.665-17.959Q10.3418-17.4121 9.25781-16.3281ZM10.752-15.957Q11.6602-16.6211 12.7002-16.9043Q13.7402-17.1875 14.8047-17.085Q15.8691-16.9824 16.8701-16.5137Q17.8711-16.0449 18.7012-15.2051L21.1328-12.793Q21.3086-12.6172 21.3525-12.4512Q21.3965-12.2852 21.3379-12.0312L21.0156-10.5469L22.5195-9.0625L23.5059-9.12109Q23.6914-9.13086 23.7891-9.09668Q23.8867-9.0625 24.0332-8.91602L24.6094-8.33984L22.168-5.89844L21.5918-6.47461Q21.4453-6.62109 21.4062-6.71875Q21.3672-6.81641 21.377-7.01172L21.4453-7.98828L19.9512-9.47266L18.4277-9.21875Q18.1836-9.16992 18.042-9.2041Q17.9004-9.23828 17.7148-9.41406L15.7129-11.416Q15.5176-11.5918 15.4932-11.7529Q15.4688-11.9141 15.5859-12.1875L16.4648-14.2773Q15.293-15.3711 13.8281-15.791Q12.3633-16.2109 10.8398-15.7617Q10.7227-15.7324 10.6885-15.8057Q10.6543-15.8789 10.752-15.957Z"/>
  </g>
  <text style="stroke:none;fill:black;font-family:sans-serif;font-size:13;font-weight:bold;" transform="matrix(1 0 0 1 1289 1953)">Exporting</text>
  <text style="stroke:none;fill:black;font-family:sans-serif;font-size:13;" transform="matrix(1 0 0 1 1289 1971)">Symbols should be outlined when exporting to ensure the</text>
  <text style="stroke:none;fill:black;font-family:sans-serif;font-size:13;" transform="matrix(1 0 0 1 1289 1989)">design is preserved when submitting to Xcode.</text>
  <text id="template-version" style="stroke:none;fill:black;font-family:sans-serif;font-size:13;text-anchor:end;" transform="matrix(1 0 0 1 3036 1933)">Template v.3.0</text>
  <text style="stroke:none;fill:black;font-family:sans-serif;font-size:13;text-anchor:end;" transform="matrix(1 0 0 1 3036 1951)">Requires Xcode 13 or greater</text>
  <text id="descriptive-name" style="stroke:none;fill:black;font-family:sans-serif;font-size:13;text-anchor:end;" transform="matrix(1 0 0 1 3036 1969)">Generated from text.justify.left</text>
  <text style="stroke:none;fill:black;font-family:sans-serif;font-size:13;text-anchor:end;" transform="matrix(1 0 0 1 3036 1987)">Typeset at 100 points</text>
  <text style="stroke:none;fill:black;font-family:sans-serif;font-size:13;" transform="matrix(1 0 0 1 263 726)">Small</text>
  <text style="stroke:none;fill:black;font-family:sans-serif;font-size:13;" transform="matrix(1 0 0 1 263 1156)">Medium</text>
  <text style="stroke:none;fill:black;font-family:sans-serif;font-size:13;" transform="matrix(1 0 0 1 263 1586)">Large</text>
 </g>
 <g id="Guides">
  <g id="H-reference" style="fill:#27AAE1;stroke:none;" transform="matrix(1 0 0 1 339 696)">
   <path d="M0.993347 0L3.6377 0L29.3282-67.1326L30.0301-67.1326L30.0301-70.459L28.1227-70.459ZM11.6882-24.4797L46.9818-24.4797L46.2311-26.7288L12.4382-26.7288ZM55.1193 0L57.7637 0L30.6381-70.459L29.4327-70.459L29.4327-67.1326Z"/>
  </g>
  <line id="Baseline-S" style="fill:none;stroke:#27AAE1;opacity:1;stroke-width:0.5;" x1="263" x2="3036" y1="696" y2="696"/>
  <line id="Capline-S" style="fill:none;stroke:#27AAE1;opacity:1;stroke-width:0.5;" x1="263" x2="3036" y1="625.541" y2="625.541"/>
  <g id="H-reference" style="fill:#27AAE1;stroke:none;" transform="matrix(1 0 0 1 339 1126)">
   <path d="M0.993347 0L3.6377 0L29.3282-67.1326L30.0301-67.1326L30.0301-70.459L28.1227-70.459ZM11.6882-24.4797L46.9818-24.4797L46.2311-26.7288L12.4382-26.7288ZM55.1193 0L57.7637 0L30.6381-70.459L29.4327-70.459L29.4327-67.1326Z"/>
  </g>
  <line id="Baseline-M" style="fill:none;stroke:#27AAE1;opacity:1;stroke-width:0.5;" x1="263" x2="3036" y1="1126" y2="1126"/>
  <line id="Capline-M" style="fill:none;stroke:#27AAE1;opacity:1;stroke-width:0.5;" x1="263" x2="3036" y1="1055.54" y2="1055.54"/>
  <g id="H-reference" style="fill:#27AAE1;stroke:none;" transform="matrix(1 0 0 1 339 1556)">
   <path d="M0.993347 0L3.6377 0L29.3282-67.1326L30.0301-67.1326L30.0301-70.459L28.1227-70.459ZM11.6882-24.4797L46.9818-24.4797L46.2311-26.7288L12.4382-26.7288ZM55.1193 0L57.7637 0L30.6381-70.459L29.4327-70.459L29.4327-67.1326Z"/>
  </g>
  <line id="Baseline-L" style="fill:none;stroke:#27AAE1;opacity:1;stroke-width:0.5;" x1="263" x2="3036" y1="1556" y2="1556"/>
  <line id="Capline-L" style="fill:none;stroke:#27AAE1;opacity:1;stroke-width:0.5;" x1="263" x2="3036" y1="1485.54" y2="1485.54"/>
  <line id="left-margin-Ultralight-S" style="fill:none;stroke:#00AEEF;stroke-width:0.5;opacity:1.0;" x1="513.207" x2="513.207" y1="600.785" y2="720.121"/>
  <line id="right-margin-Ultralight-S" style="fill:none;stroke:#00AEEF;stroke-width:0.5;opacity:1.0;" x1="606.215" x2="606.215" y1="600.785" y2="720.121"/>
  <line id="left-margin-Thin-S" style="fill:none;stroke:#00AEEF;stroke-width:0.5;opacity:1.0;" x1="809.421" x2="809.421" y1="600.785" y2="720.121"/>
  <line id="right-margin-Thin-S" style="fill:none;stroke:#00AEEF;stroke-width:0.5;opacity:1.0;" x1="903.423" x2="903.423" y1="600.785" y2="720.121"/>
  <line id="left-margin-Light-S" style="fill:none;stroke:#00AEEF;stroke-width:0.5;opacity:1.0;" x1="1105.16" x2="1105.16" y1="600.785" y2="720.121"/>
  <line id="right-margin-Light-S" style="fill:none;stroke:#00AEEF;stroke-width:0.5;opacity:1.0;" x1="1201.11" x2="1201.11" y1="600.785" y2="720.121"/>
  <line id="left-margin-Regular-S" style="fill:none;stroke:#00AEEF;stroke-width:0.5;opacity:1.0;" x1="1401.14" x2="1401.14" y1="600.785" y2="720.121"/>
  <line id="right-margin-Regular-S" style="fill:none;stroke:#00AEEF;stroke-width:0.5;opacity:1.0;" x1="1498.55" x2="1498.55" y1="600.785" y2="720.121"/>
  <line id="left-margin-Medium-S" style="fill:none;stroke:#00AEEF;stroke-width:0.5;opacity:1.0;" x1="1696.95" x2="1696.95" y1="600.785" y2="720.121"/>
  <line id="right-margin-Medium-S" style="fill:none;stroke:#00AEEF;stroke-width:0.5;opacity:1.0;" x1="1796.16" x2="1796.16" y1="600.785" y2="720.121"/>
  <line id="left-margin-Semibold-S" style="fill:none;stroke:#00AEEF;stroke-width:0.5;opacity:1.0;" x1="1992.97" x2="1992.97" y1="600.785" y2="720.121"/>
  <line id="right-margin-Semibold-S" style="fill:none;stroke:#00AEEF;stroke-width:0.5;opacity:1.0;" x1="2093.56" x2="2093.56" y1="600.785" y2="720.121"/>
  <line id="left-margin-Bold-S" style="fill:none;stroke:#00AEEF;stroke-width:0.5;opacity:1.0;" x1="2288.77" x2="2288.77" y1="600.785" y2="720.121"/>
  <line id="right-margin-Bold-S" style="fill:none;stroke:#00AEEF;stroke-width:0.5;opacity:1.0;" x1="2391.19" x2="2391.19" y1="600.785" y2="720.121"/>
  <line id="left-margin-Heavy-S" style="fill:none;stroke:#00AEEF;stroke-width:0.5;opacity:1.0;" x1="2584.16" x2="2584.16" y1="600.785" y2="720.121"/>
  <line id="right-margin-Heavy-S" style="fill:none;stroke:#00AEEF;stroke-width:0.5;opacity:1.0;" x1="2689.22" x2="2689.22" y1="600.785" y2="720.121"/>
  <line id="left-margin-Black-S" style="fill:none;stroke:#00AEEF;stroke-width:0.5;opacity:1.0;" x1="2879.69" x2="2879.69" y1="600.785" y2="720.121"/>
  <line id="right-margin-Black-S" style="fill:none;stroke:#00AEEF;stroke-width:0.5;opacity:1.0;" x1="2987.11" x2="2987.11" y1="600.785" y2="720.121"/>
  <line id="left-margin-Ultralight-M" style="fill:none;stroke:#00AEEF;stroke-width:0.5;opacity:1.0;" x1="500.563" x2="500.563" y1="1030.79" y2="1150.12"/>
  <line id="right-margin-Ultralight-M" style="fill:none;stroke:#00AEEF;stroke-width:0.5;opacity:1.0;" x1="618.859" x2="618.859" y1="1030.79" y2="1150.12"/>
  <line id="left-margin-Thin-M" style="fill:none;stroke:#00AEEF;stroke-width:0.5;opacity:1.0;" x1="796.71" x2="796.71" y1="1030.79" y2="1150.12"/>
  <line id="right-margin-Thin-M" style="fill:none;stroke:#00AEEF;stroke-width:0.5;opacity:1.0;" x1="916.134" x2="916.134" y1="1030.79" y2="1150.12"/>
  <line id="left-margin-Light-M" style="fill:none;stroke:#00AEEF;stroke-width:0.5;opacity:1.0;" x1="1092.32" x2="1092.32" y1="1030.79" y2="1150.12"/>
  <line id="right-margin-Light-M" style="fill:none;stroke:#00AEEF;stroke-width:0.5;opacity:1.0;" x1="1213.95" x2="1213.95" y1="1030.79" y2="1150.12"/>
  <line id="left-margin-Regular-M" style="fill:none;stroke:#00AEEF;stroke-width:0.5;opacity:1.0;" x1="1388.2" x2="1388.2" y1="1030.79" y2="1150.12"/>
  <line id="right-margin-Regular-M" style="fill:none;stroke:#00AEEF;stroke-width:0.5;opacity:1.0;" x1="1511.49" x2="1511.49" y1="1030.79" y2="1150.12"/>
  <line id="left-margin-Medium-M" style="fill:none;stroke:#00AEEF;stroke-width:0.5;opacity:1.0;" x1="1683.76" x2="1683.76" y1="1030.79" y2="1150.12"/>
  <line id="right-margin-Medium-M" style="fill:none;stroke:#00AEEF;stroke-width:0.5;opacity:1.0;" x1="1809.35" x2="1809.35" y1="1030.79" y2="1150.12"/>
  <line id="left-margin-Semibold-M" style="fill:none;stroke:#00AEEF;stroke-width:0.5;opacity:1.0;" x1="1979.59" x2="1979.59" y1="1030.79" y2="1150.12"/>
  <line id="right-margin-Semibold-M" style="fill:none;stroke:#00AEEF;stroke-width:0.5;opacity:1.0;" x1="2106.94" x2="2106.94" y1="1030.79" y2="1150.12"/>
  <line id="left-margin-Bold-M" style="fill:none;stroke:#00AEEF;stroke-width:0.5;opacity:1.0;" x1="2275.15" x2="2275.15" y1="1030.79" y2="1150.12"/>
  <line id="right-margin-Bold-M" style="fill:none;stroke:#00AEEF;stroke-width:0.5;opacity:1.0;" x1="2404.81" x2="2404.81" y1="1030.79" y2="1150.12"/>
  <line id="left-margin-Heavy-M" style="fill:none;stroke:#00AEEF;stroke-width:0.5;opacity:1.0;" x1="2570.18" x2="2570.18" y1="1030.79" y2="1150.12"/>
  <line id="right-margin-Heavy-M" style="fill:none;stroke:#00AEEF;stroke-width:0.5;opacity:1.0;" x1="2703.2" x2="2703.2" y1="1030.79" y2="1150.12"/>
  <line id="left-margin-Black-M" style="fill:none;stroke:#00AEEF;stroke-width:0.5;opacity:1.0;" x1="2865.38" x2="2865.38" y1="1030.79" y2="1150.12"/>
  <line id="right-margin-Black-M" style="fill:none;stroke:#00AEEF;stroke-width:0.5;opacity:1.0;" x1="3001.42" x2="3001.42" y1="1030.79" y2="1150.12"/>
  <line id="left-margin-Ultralight-L" style="fill:none;stroke:#00AEEF;stroke-width:0.5;opacity:1.0;" x1="483.624" x2="483.624" y1="1460.79" y2="1580.12"/>
  <line id="right-margin-Ultralight-L" style="fill:none;stroke:#00AEEF;stroke-width:0.5;opacity:1.0;" x1="635.799" x2="635.799" y1="1460.79" y2="1580.12"/>
  <line id="left-margin-Thin-L" style="fill:none;stroke:#00AEEF;stroke-width:0.5;opacity:1.0;" x1="779.709" x2="779.709" y1="1460.79" y2="1580.12"/>
  <line id="right-margin-Thin-L" style="fill:none;stroke:#00AEEF;stroke-width:0.5;opacity:1.0;" x1="933.135" x2="933.135" y1="1460.79" y2="1580.12"/>
  <line id="left-margin-Light-L" style="fill:none;stroke:#00AEEF;stroke-width:0.5;opacity:1.0;" x1="1075.2" x2="1075.2" y1="1460.79" y2="1580.12"/>
  <line id="right-margin-Light-L" style="fill:none;stroke:#00AEEF;stroke-width:0.5;opacity:1.0;" x1="1231.07" x2="1231.07" y1="1460.79" y2="1580.12"/>
  <line id="left-margin-Regular-L" style="fill:none;stroke:#00AEEF;stroke-width:0.5;opacity:1.0;" x1="1370.99" x2="1370.99" y1="1460.79" y2="1580.12"/>
  <line id="right-margin-Regular-L" style="fill:none;stroke:#00AEEF;stroke-width:0.5;opacity:1.0;" x1="1528.7" x2="1528.7" y1="1460.79" y2="1580.12"/>
  <line id="left-margin-Medium-L" style="fill:none;stroke:#00AEEF;stroke-width:0.5;opacity:1.0;" x1="1666.37" x2="1666.37" y1="1460.79" y2="1580.12"/>
  <line id="right-margin-Medium-L" style="fill:none;stroke:#00AEEF;stroke-width:0.5;opacity:1.0;" x1="1826.74" x2="1826.74" y1="1460.79" y2="1580.12"/>
  <line id="left-margin-Semibold-L" style="fill:none;stroke:#00AEEF;stroke-width:0.5;opacity:1.0;" x1="1962.06" x2="1962.06" y1="1460.79" y2="1580.12"/>
  <line id="right-margin-Semibold-L" style="fill:none;stroke:#00AEEF;stroke-width:0.5;opacity:1.0;" x1="2124.47" x2="2124.47" y1="1460.79" y2="1580.12"/>
  <line id="left-margin-Bold-L" style="fill:none;stroke:#00AEEF;stroke-width:0.5;opacity:1.0;" x1="2257.43" x2="2257.43" y1="1460.79" y2="1580.12"/>
  <line id="right-margin-Bold-L" style="fill:none;stroke:#00AEEF;stroke-width:0.5;opacity:1.0;" x1="2422.52" x2="2422.52" y1="1460.79" y2="1580.12"/>
  <line id="left-margin-Heavy-L" style="fill:none;stroke:#00AEEF;stroke-width:0.5;opacity:1.0;" x1="2552.2" x2="2552.2" y1="1460.79" y2="1580.12"/>
  <line id="right-margin-Heavy-L" style="fill:none;stroke:#00AEEF;stroke-width:0.5;opacity:1.0;" x1="2721.18" x2="2721.18" y1="1460.79" y2="1580.12"/>
  <line id="left-margin-Black-L" style="fill:none;stroke:#00AEEF;stroke-width:0.5;opacity:1.0;" x1="2847.17" x2="2847.17" y1="1460.79" y2="1580.12"/>
  <line id="right-margin-Black-L" style="fill:none;stroke:#00AEEF;stroke-width:0.5;opacity:1.0;" x1="3019.63" x2="3019.63" y1="1460.79" y2="1580.12"/>
 </g>
 <g id="Symbols">
  <g id="Black-L" transform="matrix(1 0 0 1 2847.17 1556)">
   <path d="M24.9023-77.2461L147.559-77.2461Q151.27-77.2461 153.833-80.0049Q156.396-82.7637 156.396-86.377Q156.396-90.1367 153.857-92.8223Q151.318-95.5078 147.559-95.5078L24.9023-95.5078Q21.1914-95.5078 18.6279-92.7734Q16.0645-90.0391 16.0645-86.377Q16.0645-82.8125 18.6523-80.0293Q21.2402-77.2461 24.9023-77.2461ZM24.9023-44.1895L147.559-44.1895Q151.27-44.1895 153.833-46.9482Q156.396-49.707 156.396-53.3203Q156.396-57.0801 153.857-59.7656Q151.318-62.4512 147.559-62.4512L24.9023-62.4512Q21.1914-62.4512 18.6279-59.7168Q16.0645-56.9824 16.0645-53.3203Q16.0645-49.8047 18.6523-46.9971Q21.2402-44.1895 24.9023-44.1895ZM24.9023-11.1328L147.559-11.1328Q151.27-11.1328 153.833-13.8916Q156.396-16.6504 156.396-20.2637Q156.396-24.0234 153.857-26.709Q151.318-29.3945 147.559-29.3945L24.9023-29.3945Q21.1914-29.3945 18.6279-26.6602Q16.0645-23.9258 16.0645-20.2637Q16.0645-16.6992 18.6523-13.916Q21.2402-11.1328 24.9023-11.1328ZM24.9023 21.9238L88.0859 21.9238Q91.7969 21.9238 94.3848 19.165Q96.9727 16.4062 96.9727 12.793Q96.9727 9.0332 94.4092 6.34766Q91.8457 3.66211 88.0859 3.66211L24.9023 3.66211Q21.1914 3.66211 18.6279 6.39648Q16.0645 9.13086 16.0645 12.793Q16.0645 16.3086 18.6523 19.1162Q21.2402 21.9238 24.9023 21.9238Z"/>
  </g>
  <g id="Heavy-L" transform="matrix(1 0 0 1 2552.2 1556)">
   <path d="M23.7846-78.0991L145.184-78.0991Q148.423-78.0991 150.669-80.4832Q152.916-82.8674 152.916-86.0428Q152.916-89.3188 150.688-91.647Q148.46-93.9751 145.184-93.9751L23.7846-93.9751Q20.5345-93.9751 18.2995-91.6096Q16.0645-89.2441 16.0645-86.0428Q16.0645-82.9048 18.3182-80.5019Q20.5719-78.0991 23.7846-78.0991ZM23.7846-45.0424L145.184-45.0424Q148.423-45.0424 150.669-47.4323Q152.916-49.8222 152.916-52.9861Q152.916-56.2622 150.688-58.596Q148.46-60.9299 145.184-60.9299L23.7846-60.9299Q20.5345-60.9299 18.2995-58.5587Q16.0645-56.1874 16.0645-52.9861Q16.0645-49.897 18.3182-47.4697Q20.5719-45.0424 23.7846-45.0424ZM23.7846-11.9972L145.184-11.9972Q148.423-11.9972 150.669-14.3814Q152.916-16.7656 152.916-19.9295Q152.916-23.217 150.688-25.5451Q148.46-27.8732 145.184-27.8732L23.7846-27.8732Q20.5345-27.8732 18.2995-25.5077Q16.0645-23.1422 16.0645-19.9295Q16.0645-16.803 18.3182-14.4001Q20.5719-11.9972 23.7846-11.9972ZM23.7846 21.0594L87.6251 21.0594Q90.8752 21.0594 93.1347 18.6695Q95.3941 16.2796 95.3941 13.1157Q95.3941 9.83963 93.153 7.51152Q90.9119 5.18341 87.6251 5.18341L23.7846 5.18341Q20.5345 5.18341 18.2995 7.5489Q16.0645 9.9144 16.0645 13.1157Q16.0645 16.2048 18.3182 18.6321Q20.5719 21.0594 23.7846 21.0594Z"/>
  </g>
  <g id="Bold-L" transform="matrix(1 0 0 1 2257.43 1556)">
   <path d="M22.5342-79.0527L142.529-79.0527Q145.239-79.0527 147.131-81.0181Q149.023-82.9834 149.023-85.6689Q149.023-88.4033 147.144-90.332Q145.264-92.2607 142.529-92.2607L22.5342-92.2607Q19.7998-92.2607 17.9321-90.3076Q16.0645-88.3545 16.0645-85.6689Q16.0645-83.0078 17.9443-81.0303Q19.8242-79.0527 22.5342-79.0527ZM22.5342-45.9961L142.529-45.9961Q145.239-45.9961 147.131-47.9736Q149.023-49.9512 149.023-52.6123Q149.023-55.3467 147.144-57.2876Q145.264-59.2285 142.529-59.2285L22.5342-59.2285Q19.7998-59.2285 17.9321-57.2632Q16.0645-55.2979 16.0645-52.6123Q16.0645-50 17.9443-47.998Q19.8242-45.9961 22.5342-45.9961ZM22.5342-12.9639L142.529-12.9639Q145.239-12.9639 147.131-14.9292Q149.023-16.8945 149.023-19.5557Q149.023-22.3145 147.144-24.2432Q145.264-26.1719 142.529-26.1719L22.5342-26.1719Q19.7998-26.1719 17.9321-24.2188Q16.0645-22.2656 16.0645-19.5557Q16.0645-16.9189 17.9443-14.9414Q19.8242-12.9639 22.5342-12.9639ZM22.5342 20.0928L87.1094 20.0928Q89.8438 20.0928 91.7358 18.1152Q93.6279 16.1377 93.6279 13.4766Q93.6279 10.7422 91.748 8.81348Q89.8682 6.88477 87.1094 6.88477L22.5342 6.88477Q19.7998 6.88477 17.9321 8.83789Q16.0645 10.791 16.0645 13.4766Q16.0645 16.0889 17.9443 18.0908Q19.8242 20.0928 22.5342 20.0928Z"/>
  </g>
  <g id="Semibold-L" transform="matrix(1 0 0 1 1962.06 1556)">
   <path d="M21.6721-79.7104L140.698-79.7104Q143.044-79.7104 144.692-81.3869Q146.339-83.0635 146.339-85.4111Q146.339-87.7724 144.699-89.4257Q143.06-91.0789 140.698-91.0789L21.6721-91.0789Q19.2932-91.0789 17.6788-89.41Q16.0645-87.7411 16.0645-85.4111Q16.0645-83.0788 17.6865-81.3946Q19.3085-79.7104 21.6721-79.7104ZM21.6721-46.6537L140.698-46.6537Q143.044-46.6537 144.692-48.3467Q146.339-50.0397 146.339-52.3544Q146.339-54.7157 144.699-56.3854Q143.06-58.0551 140.698-58.0551L21.6721-58.0551Q19.2932-58.0551 17.6788-56.3698Q16.0645-54.6844 16.0645-52.3544Q16.0645-50.071 17.6865-48.3624Q19.3085-46.6537 21.6721-46.6537ZM21.6721-13.6307L140.698-13.6307Q143.044-13.6307 144.692-15.3069Q146.339-16.983 146.339-19.2978Q146.339-21.6927 144.699-23.3456Q143.06-24.9985 140.698-24.9985L21.6721-24.9985Q19.2932-24.9985 17.6788-23.3299Q16.0645-21.6614 16.0645-19.2978Q16.0645-16.9991 17.6865-15.3149Q19.3085-13.6307 21.6721-13.6307ZM21.6721 19.426L86.7538 19.426Q89.1327 19.426 90.7715 17.733Q92.4103 16.04 92.4103 13.7253Q92.4103 11.364 90.7791 9.71107Q89.1479 8.05817 86.7538 8.05817L21.6721 8.05817Q19.2932 8.05817 17.6788 9.72672Q16.0645 11.3953 16.0645 13.7253Q16.0645 16.0088 17.6865 17.7174Q19.3085 19.426 21.6721 19.426Z"/>
  </g>
  <g id="Medium-L" transform="matrix(1 0 0 1 1666.37 1556)">
   <path d="M21.0182-80.2094L139.31-80.2094Q141.38-80.2094 142.842-81.6666Q144.305-83.1238 144.305-85.2158Q144.305-87.294 142.847-88.7383Q141.389-90.1825 139.31-90.1825L21.0182-90.1825Q18.9095-90.1825 17.487-88.7295Q16.0645-87.2765 16.0645-85.2158Q16.0645-83.1329 17.4911-81.6711Q18.9178-80.2094 21.0182-80.2094ZM21.0182-47.1527L139.31-47.1527Q141.38-47.1527 142.842-48.6301Q144.305-50.1076 144.305-52.1591Q144.305-54.2374 142.847-55.7018Q141.389-57.1663 139.31-57.1663L21.0182-57.1663Q18.9095-57.1663 17.487-55.6931Q16.0645-54.2198 16.0645-52.1591Q16.0645-50.1251 17.4911-48.6389Q18.9178-47.1527 21.0182-47.1527ZM21.0182-14.1357L139.31-14.1357Q141.38-14.1357 142.842-15.5933Q144.305-17.0509 144.305-19.1025Q144.305-21.2204 142.847-22.665Q141.389-24.1096 139.31-24.1096L21.0182-24.1096Q18.9095-24.1096 17.487-22.6562Q16.0645-21.2029 16.0645-19.1025Q16.0645-17.0593 17.4911-15.5975Q18.9178-14.1357 21.0182-14.1357ZM21.0182 18.9209L86.4845 18.9209Q88.5941 18.9209 90.0406 17.4435Q91.4871 15.966 91.4871 13.9137Q91.4871 11.8362 90.0448 10.3916Q88.6024 8.94699 86.4845 8.94699L21.0182 8.94699Q18.9095 8.94699 17.487 10.4004Q16.0645 11.8538 16.0645 13.9137Q16.0645 15.9485 17.4911 17.4347Q18.9178 18.9209 21.0182 18.9209Z"/>
  </g>
  <g id="Regular-L" transform="matrix(1 0 0 1 1370.99 1556)">
   <path d="M20.166-80.8594L137.5-80.8594Q139.209-80.8594 140.43-82.0312Q141.65-83.2031 141.65-84.9609Q141.65-86.6699 140.43-87.8418Q139.209-89.0137 137.5-89.0137L20.166-89.0137Q18.4082-89.0137 17.2363-87.8418Q16.0645-86.6699 16.0645-84.9609Q16.0645-83.2031 17.2363-82.0312Q18.4082-80.8594 20.166-80.8594ZM20.166-47.8027L137.5-47.8027Q139.209-47.8027 140.43-48.999Q141.65-50.1953 141.65-51.9043Q141.65-53.6133 140.43-54.8096Q139.209-56.0059 137.5-56.0059L20.166-56.0059Q18.4082-56.0059 17.2363-54.8096Q16.0645-53.6133 16.0645-51.9043Q16.0645-50.1953 17.2363-48.999Q18.4082-47.8027 20.166-47.8027ZM20.166-14.7949L137.5-14.7949Q139.209-14.7949 140.43-15.9668Q141.65-17.1387 141.65-18.8477Q141.65-20.6055 140.43-21.7773Q139.209-22.9492 137.5-22.9492L20.166-22.9492Q18.4082-22.9492 17.2363-21.7773Q16.0645-20.6055 16.0645-18.8477Q16.0645-17.1387 17.2363-15.9668Q18.4082-14.7949 20.166-14.7949ZM20.166 18.2617L86.1328 18.2617Q87.8906 18.2617 89.0869 17.0654Q90.2832 15.8691 90.2832 14.1602Q90.2832 12.4512 89.0869 11.2793Q87.8906 10.1074 86.1328 10.1074L20.166 10.1074Q18.4082 10.1074 17.2363 11.2793Q16.0645 12.4512 16.0645 14.1602Q16.0645 15.8691 17.2363 17.0654Q18.4082 18.2617 20.166 18.2617Z"/>
  </g>
  <g id="Light-L" transform="matrix(1 0 0 1 1075.2 1556)">
   <path d="M19.2276-81.7673L136.592-81.7673Q137.937-81.7673 138.871-82.6668Q139.804-83.5663 139.804-84.9304Q139.804-86.2762 138.871-87.1758Q137.937-88.0753 136.592-88.0753L19.2276-88.0753Q17.8635-88.0753 16.964-87.1758Q16.0645-86.2762 16.0645-84.9304Q16.0645-83.5663 16.964-82.6668Q17.8635-81.7673 19.2276-81.7673ZM19.2276-48.6809L136.592-48.6809Q137.937-48.6809 138.871-49.5972Q139.804-50.5135 139.804-51.844Q139.804-53.1891 138.871-54.1054Q137.937-55.0217 136.592-55.0217L19.2276-55.0217Q17.8635-55.0217 16.964-54.1054Q16.0645-53.1891 16.0645-51.844Q16.0645-50.5135 16.964-49.5972Q17.8635-48.6809 19.2276-48.6809ZM19.2276-15.6273L136.592-15.6273Q137.937-15.6273 138.871-16.5268Q139.804-17.4263 139.804-18.7569Q139.804-20.1363 138.871-21.0358Q137.937-21.9353 136.592-21.9353L19.2276-21.9353Q17.8635-21.9353 16.964-21.0358Q16.0645-20.1363 16.0645-18.7569Q16.0645-17.4263 16.964-16.5268Q17.8635-15.6273 19.2276-15.6273ZM19.2276 17.4591L83.3778 17.4591Q84.7572 17.4591 85.6735 16.5432Q86.5898 15.6273 86.5898 14.2967Q86.5898 12.9509 85.6735 12.0514Q84.7572 11.1519 83.3778 11.1519L19.2276 11.1519Q17.8635 11.1519 16.964 12.0514Q16.0645 12.9509 16.0645 14.2967Q16.0645 15.6273 16.964 16.5432Q17.8635 17.4591 19.2276 17.4591Z"/>
  </g>
  <g id="Thin-L" transform="matrix(1 0 0 1 779.709 1556)">
   <path d="M17.9863-82.9689L135.39-82.9689Q136.256-82.9689 136.808-83.5079Q137.361-84.0469 137.361-84.8907Q137.361-85.7559 136.808-86.2949Q136.256-86.834 135.39-86.834L17.9863-86.834Q17.1425-86.834 16.6035-86.2949Q16.0645-85.7559 16.0645-84.8907Q16.0645-84.0469 16.6035-83.5079Q17.1425-82.9689 17.9863-82.9689ZM17.9863-49.8421L135.39-49.8421Q136.256-49.8421 136.808-50.388Q137.361-50.9338 137.361-51.7639Q137.361-52.6291 136.808-53.175Q136.256-53.7209 135.39-53.7209L17.9863-53.7209Q17.1425-53.7209 16.6035-53.175Q16.0645-52.6291 16.0645-51.7639Q16.0645-50.9338 16.6035-50.388Q17.1425-49.8421 17.9863-49.8421ZM17.9863-16.7282L135.39-16.7282Q136.256-16.7282 136.808-17.2672Q137.361-17.8062 137.361-18.6371Q137.361-19.516 136.808-20.055Q136.256-20.594 135.39-20.594L17.9863-20.594Q17.1425-20.594 16.6035-20.055Q16.0645-19.516 16.0645-18.6371Q16.0645-17.8062 16.6035-17.2672Q17.1425-16.7282 17.9863-16.7282ZM17.9863 16.3986L79.7348 16.3986Q80.6137 16.3986 81.1596 15.8527Q81.7055 15.3069 81.7055 14.4768Q81.7055 13.6116 81.1596 13.0722Q80.6137 12.5328 79.7348 12.5328L17.9863 12.5328Q17.1425 12.5328 16.6035 13.0722Q16.0645 13.6116 16.0645 14.4768Q16.0645 15.3069 16.6035 15.8527Q17.1425 16.3986 17.9863 16.3986Z"/>
  </g>
  <g id="Ultralight-L" transform="matrix(1 0 0 1 483.624 1556)">
   <path d="M17.3508-83.5838L134.776-83.5838Q135.394-83.5838 135.752-83.9382Q136.111-84.2926 136.111-84.8701Q136.111-85.4889 135.752-85.8437Q135.394-86.1984 134.776-86.1984L17.3508-86.1984Q16.7732-86.1984 16.4188-85.8437Q16.0645-85.4889 16.0645-84.8701Q16.0645-84.2926 16.4188-83.9382Q16.7732-83.5838 17.3508-83.5838ZM17.3508-50.4364L134.776-50.4364Q135.394-50.4364 135.752-50.7927Q136.111-51.149 136.111-51.7227Q136.111-52.3415 135.752-52.6978Q135.394-53.054 134.776-53.054L17.3508-53.054Q16.7732-53.054 16.4188-52.6978Q16.0645-52.3415 16.0645-51.7227Q16.0645-51.149 16.4188-50.7927Q16.7732-50.4364 17.3508-50.4364ZM17.3508-17.2928L134.776-17.2928Q135.394-17.2928 135.752-17.6472Q136.111-18.0016 136.111-18.5753Q136.111-19.1978 135.752-19.5522Q135.394-19.9066 134.776-19.9066L17.3508-19.9066Q16.7732-19.9066 16.4188-19.5522Q16.0645-19.1978 16.0645-18.5753Q16.0645-18.0016 16.4188-17.6472Q16.7732-17.2928 17.3508-17.2928ZM17.3508 15.8546L77.8679 15.8546Q78.4904 15.8546 78.8467 15.4987Q79.203 15.1428 79.203 14.5691Q79.203 13.9496 78.8467 13.5952Q78.4904 13.2408 77.8679 13.2408L17.3508 13.2408Q16.7732 13.2408 16.4188 13.5952Q16.0645 13.9496 16.0645 14.5691Q16.0645 15.1428 16.4188 15.4987Q16.7732 15.8546 17.3508 15.8546Z"/>
  </g>
  <g id="Black-M" transform="matrix(1 0 0 1 2865.38 1126)">
   <path d="M19.9707-67.3828L116.064-67.3828Q119.238-67.3828 121.411-69.7266Q123.584-72.0703 123.584-75.1465Q123.584-78.3203 121.436-80.6152Q119.287-82.9102 116.064-82.9102L19.9707-82.9102Q16.7969-82.9102 14.624-80.5908Q12.4512-78.2715 12.4512-75.1465Q12.4512-72.168 14.6484-69.7754Q16.8457-67.3828 19.9707-67.3828ZM19.9707-41.748L116.064-41.748Q119.238-41.748 121.411-44.1162Q123.584-46.4844 123.584-49.5605Q123.584-52.7344 121.436-55.0293Q119.287-57.3242 116.064-57.3242L19.9707-57.3242Q16.7969-57.3242 14.624-54.9805Q12.4512-52.6367 12.4512-49.5605Q12.4512-46.582 14.6484-44.165Q16.8457-41.748 19.9707-41.748ZM19.9707-16.0645L116.064-16.0645Q119.238-16.0645 121.411-18.4326Q123.584-20.8008 123.584-23.877Q123.584-27.0508 121.436-29.3457Q119.287-31.6406 116.064-31.6406L19.9707-31.6406Q16.7969-31.6406 14.624-29.2969Q12.4512-26.9531 12.4512-23.877Q12.4512-20.8984 14.6484-18.4814Q16.8457-16.0645 19.9707-16.0645ZM19.9707 9.52148L67.7246 9.52148Q70.8984 9.52148 73.0713 7.15332Q75.2441 4.78516 75.2441 1.75781Q75.2441-1.46484 73.0713-3.75977Q70.8984-6.05469 67.7246-6.05469L19.9707-6.05469Q16.7969-6.05469 14.624-3.71094Q12.4512-1.36719 12.4512 1.75781Q12.4512 4.73633 14.6484 7.12891Q16.8457 9.52148 19.9707 9.52148Z"/>
  </g>
  <g id="Heavy-M" transform="matrix(1 0 0 1 2570.18 1126)">
   <path d="M19.0605-68.0168L113.944-68.0168Q116.737-68.0168 118.657-70.0607Q120.576-72.1046 120.576-74.8238Q120.576-77.6054 118.675-79.6124Q116.775-81.6193 113.944-81.6193L19.0605-81.6193Q16.2781-81.6193 14.3646-79.594Q12.4512-77.5688 12.4512-74.8238Q12.4512-72.1794 14.3833-70.0981Q16.3155-68.0168 19.0605-68.0168ZM19.0605-42.3935L113.944-42.3935Q116.737-42.3935 118.657-44.4561Q120.576-46.5187 120.576-49.2378Q120.576-52.0317 118.675-54.0325Q116.775-56.0333 113.944-56.0333L19.0605-56.0333Q16.2781-56.0333 14.3646-53.9951Q12.4512-51.9569 12.4512-49.2378Q12.4512-46.5935 14.3833-44.4935Q16.3155-42.3935 19.0605-42.3935ZM19.0605-16.7328L113.944-16.7328Q116.737-16.7328 118.657-18.7958Q120.576-20.8588 120.576-23.5771Q120.576-26.371 118.675-28.3718Q116.775-30.3726 113.944-30.3726L19.0605-30.3726Q16.2781-30.3726 14.3646-28.3344Q12.4512-26.2962 12.4512-23.5771Q12.4512-20.9328 14.3833-18.8328Q16.3155-16.7328 19.0605-16.7328ZM19.0605 8.84171L67.8741 8.84171Q70.6566 8.84171 72.5758 6.78444Q74.4949 4.72717 74.4949 2.0462Q74.4949-0.785065 72.5758-2.79198Q70.6566-4.79889 67.8741-4.79889L19.0605-4.79889Q16.2781-4.79889 14.3646-2.75459Q12.4512-0.710297 12.4512 2.0462Q12.4512 4.69055 14.3833 6.76613Q16.3155 8.84171 19.0605 8.84171Z"/>
  </g>
  <g id="Bold-M" transform="matrix(1 0 0 1 2275.15 1126)">
   <path d="M18.042-68.7256L111.572-68.7256Q113.94-68.7256 115.576-70.4346Q117.212-72.1436 117.212-74.4629Q117.212-76.8066 115.588-78.4912Q113.965-80.1758 111.572-80.1758L18.042-80.1758Q15.6982-80.1758 14.0747-78.479Q12.4512-76.7822 12.4512-74.4629Q12.4512-72.1924 14.0869-70.459Q15.7227-68.7256 18.042-68.7256ZM18.042-43.1152L111.572-43.1152Q113.94-43.1152 115.576-44.8364Q117.212-46.5576 117.212-48.877Q117.212-51.2451 115.588-52.9175Q113.965-54.5898 111.572-54.5898L18.042-54.5898Q15.6982-54.5898 14.0747-52.8931Q12.4512-51.1963 12.4512-48.877Q12.4512-46.6064 14.0869-44.8608Q15.7227-43.1152 18.042-43.1152ZM18.042-17.4805L111.572-17.4805Q113.94-17.4805 115.576-19.2017Q117.212-20.9229 117.212-23.2422Q117.212-25.6104 115.588-27.2827Q113.965-28.9551 111.572-28.9551L18.042-28.9551Q15.6982-28.9551 14.0747-27.2583Q12.4512-25.5615 12.4512-23.2422Q12.4512-20.9717 14.0869-19.2261Q15.7227-17.4805 18.042-17.4805ZM18.042 8.08105L68.042 8.08105Q70.3857 8.08105 72.0215 6.37207Q73.6572 4.66309 73.6572 2.36816Q73.6572-0.0244141 72.0215-1.70898Q70.3857-3.39355 68.042-3.39355L18.042-3.39355Q15.6982-3.39355 14.0747-1.68457Q12.4512 0.0244141 12.4512 2.36816Q12.4512 4.63867 14.0869 6.35986Q15.7227 8.08105 18.042 8.08105Z"/>
  </g>
  <g id="Semibold-M" transform="matrix(1 0 0 1 1979.59 1126)">
   <path d="M17.3401-69.2146L109.937-69.2146Q112.012-69.2146 113.452-70.6924Q114.893-72.1703 114.893-74.2142Q114.893-76.2558 113.46-77.718Q112.028-79.1801 109.937-79.1801L17.3401-79.1801Q15.2985-79.1801 13.8748-77.71Q12.4512-76.2398 12.4512-74.2142Q12.4512-72.2015 13.8824-70.7081Q15.3137-69.2146 17.3401-69.2146ZM17.3401-43.6127L109.937-43.6127Q112.012-43.6127 113.452-45.0985Q114.893-46.5843 114.893-48.6282Q114.893-50.7027 113.46-52.1484Q112.028-53.5942 109.937-53.5942L17.3401-53.5942Q15.2985-53.5942 13.8748-52.1332Q12.4512-50.6721 12.4512-48.6282Q12.4512-46.6156 13.8824-45.1141Q15.3137-43.6127 17.3401-43.6127ZM17.3401-17.9962L109.937-17.9962Q112.012-17.9962 113.452-19.4817Q114.893-20.9671 114.893-23.011Q114.893-25.0862 113.46-26.532Q112.028-27.9778 109.937-27.9778L17.3401-27.9778Q15.2985-27.9778 13.8748-26.5163Q12.4512-25.0549 12.4512-23.011Q12.4512-20.9984 13.8824-19.4973Q15.3137-17.9962 17.3401-17.9962ZM17.3401 7.55692L68.1572 7.55692Q70.1988 7.55692 71.6393 6.08788Q73.0797 4.61884 73.0797 2.59018Q73.0797 0.499725 71.6393-0.962448Q70.1988-2.42462 68.1572-2.42462L17.3401-2.42462Q15.2985-2.42462 13.8748-0.946808Q12.4512 0.531006 12.4512 2.59018Q12.4512 4.60281 13.8824 6.07986Q15.3137 7.55692 17.3401 7.55692Z"/>
  </g>
  <g id="Medium-M" transform="matrix(1 0 0 1 1683.76 1126)">
   <path d="M16.8076-69.5847L108.698-69.5847Q110.55-69.5847 111.842-70.8874Q113.134-72.1901 113.134-74.0257Q113.134-75.8377 111.846-77.1317Q110.558-78.4256 108.698-78.4256L16.8076-78.4256Q14.9948-78.4256 13.723-77.1275Q12.4512-75.8293 12.4512-74.0257Q12.4512-72.2076 13.7276-70.8961Q15.004-69.5847 16.8076-69.5847ZM16.8076-43.9903L108.698-43.9903Q110.55-43.9903 111.842-45.2972Q113.134-46.6042 113.134-48.4398Q113.134-50.2922 111.846-51.5659Q110.558-52.8397 108.698-52.8397L16.8076-52.8397Q14.9948-52.8397 13.723-51.5572Q12.4512-50.2747 12.4512-48.4398Q12.4512-46.6217 13.7276-45.306Q15.004-43.9903 16.8076-43.9903ZM16.8076-18.3868L108.698-18.3868Q110.55-18.3868 111.842-19.6938Q113.134-21.0007 113.134-22.8363Q113.134-24.6887 111.846-25.9624Q110.558-27.2362 108.698-27.2362L16.8076-27.2362Q14.9948-27.2362 13.723-25.9537Q12.4512-24.6712 12.4512-22.8363Q12.4512-21.0182 13.7276-19.7025Q15.004-18.3868 16.8076-18.3868ZM16.8076 7.15942L68.2449 7.15942Q70.0577 7.15942 71.3497 5.87234Q72.6418 4.58527 72.6418 2.75879Q72.6418 0.897217 71.3497-0.396729Q70.0577-1.69067 68.2449-1.69067L16.8076-1.69067Q14.9948-1.69067 13.723-0.387955Q12.4512 0.914764 12.4512 2.75879Q12.4512 4.57611 13.7276 5.86777Q15.004 7.15942 16.8076 7.15942Z"/>
  </g>
  <g id="Regular-M" transform="matrix(1 0 0 1 1388.2 1126)">
   <path d="M16.1133-70.0684L107.08-70.0684Q108.643-70.0684 109.741-71.1426Q110.84-72.2168 110.84-73.7793Q110.84-75.293 109.741-76.3672Q108.643-77.4414 107.08-77.4414L16.1133-77.4414Q14.5996-77.4414 13.5254-76.3672Q12.4512-75.293 12.4512-73.7793Q12.4512-72.2168 13.5254-71.1426Q14.5996-70.0684 16.1133-70.0684ZM16.1133-44.4824L107.08-44.4824Q108.643-44.4824 109.741-45.5566Q110.84-46.6309 110.84-48.1934Q110.84-49.7559 109.741-50.8057Q108.643-51.8555 107.08-51.8555L16.1133-51.8555Q14.5996-51.8555 13.5254-50.8057Q12.4512-49.7559 12.4512-48.1934Q12.4512-46.6309 13.5254-45.5566Q14.5996-44.4824 16.1133-44.4824ZM16.1133-18.8965L107.08-18.8965Q108.643-18.8965 109.741-19.9707Q110.84-21.0449 110.84-22.6074Q110.84-24.1699 109.741-25.2197Q108.643-26.2695 107.08-26.2695L16.1133-26.2695Q14.5996-26.2695 13.5254-25.2197Q12.4512-24.1699 12.4512-22.6074Q12.4512-21.0449 13.5254-19.9707Q14.5996-18.8965 16.1133-18.8965ZM16.1133 6.64062L68.3594 6.64062Q69.873 6.64062 70.9717 5.59082Q72.0703 4.54102 72.0703 2.97852Q72.0703 1.41602 70.9717 0.341797Q69.873-0.732422 68.3594-0.732422L16.1133-0.732422Q14.5996-0.732422 13.5254 0.341797Q12.4512 1.41602 12.4512 2.97852Q12.4512 4.54102 13.5254 5.59082Q14.5996 6.64062 16.1133 6.64062Z"/>
  </g>
  <g id="Light-M" transform="matrix(1 0 0 1 1092.32 1126)">
   <path d="M15.2962-70.8855L106.263-70.8855Q107.492-70.8855 108.334-71.7102Q109.175-72.5349 109.175-73.764Q109.175-74.9451 108.334-75.7694Q107.492-76.5938 106.263-76.5938L15.2962-76.5938Q14.0999-76.5938 13.2755-75.7694Q12.4512-74.9451 12.4512-73.764Q12.4512-72.5349 13.2755-71.7102Q14.0999-70.8855 15.2962-70.8855ZM15.2962-45.2698L106.263-45.2698Q107.492-45.2698 108.334-46.0941Q109.175-46.9185 109.175-48.1476Q109.175-49.3622 108.334-50.1698Q107.492-50.9773 106.263-50.9773L15.2962-50.9773Q14.0999-50.9773 13.2755-50.1698Q12.4512-49.3622 12.4512-48.1476Q12.4512-46.9185 13.2755-46.0941Q14.0999-45.2698 15.2962-45.2698ZM15.2962-19.6533L106.263-19.6533Q107.492-19.6533 108.334-20.4777Q109.175-21.302 109.175-22.5166Q109.175-23.7457 108.334-24.5537Q107.492-25.3616 106.263-25.3616L15.2962-25.3616Q14.0999-25.3616 13.2755-24.5537Q12.4512-23.7457 12.4512-22.5166Q12.4512-21.302 13.2755-20.4777Q14.0999-19.6533 15.2962-19.6533ZM15.2962 5.92957L65.8768 5.92957Q67.0731 5.92957 67.9142 5.12161Q68.7553 4.31366 68.7553 3.09982Q68.7553 1.86996 67.9142 1.04561Q67.0731 0.221252 65.8768 0.221252L15.2962 0.221252Q14.0999 0.221252 13.2755 1.04561Q12.4512 1.86996 12.4512 3.09982Q12.4512 4.31366 13.2755 5.12161Q14.0999 5.92957 15.2962 5.92957Z"/>
  </g>
  <g id="Thin-M" transform="matrix(1 0 0 1 796.71 1126)">
   <path d="M14.2151-71.9666L105.182-71.9666Q105.971-71.9666 106.472-72.4609Q106.973-72.9553 106.973-73.7442Q106.973-74.4843 106.472-74.9786Q105.971-75.473 105.182-75.473L14.2151-75.473Q13.4392-75.473 12.9452-74.9786Q12.4512-74.4843 12.4512-73.7442Q12.4512-72.9553 12.9452-72.4609Q13.4392-71.9666 14.2151-71.9666ZM14.2151-46.3104L105.182-46.3104Q105.971-46.3104 106.472-46.8044Q106.973-47.2984 106.973-48.0881Q106.973-48.8419 106.472-49.329Q105.971-49.8161 105.182-49.8161L14.2151-49.8161Q13.4392-49.8161 12.9452-49.329Q12.4512-48.8419 12.4512-48.0881Q12.4512-47.2984 12.9452-46.8044Q13.4392-46.3104 14.2151-46.3104ZM14.2151-20.6543L105.182-20.6543Q105.971-20.6543 106.472-21.1483Q106.973-21.6423 106.973-22.3969Q106.973-23.1857 106.472-23.6729Q105.971-24.16 105.182-24.16L14.2151-24.16Q13.4392-24.16 12.9452-23.6729Q12.4512-23.1857 12.4512-22.3969Q12.4512-21.6423 12.9452-21.1483Q13.4392-20.6543 14.2151-20.6543ZM14.2151 4.9881L62.5938 4.9881Q63.3698 4.9881 63.8706 4.50096Q64.3715 4.01382 64.3715 3.26004Q64.3715 2.4704 63.8706 1.97639Q63.3698 1.48239 62.5938 1.48239L14.2151 1.48239Q13.4392 1.48239 12.9452 1.97639Q12.4512 2.4704 12.4512 3.26004Q12.4512 4.01382 12.9452 4.50096Q13.4392 4.9881 14.2151 4.9881Z"/>
  </g>
  <g id="Ultralight-M" transform="matrix(1 0 0 1 500.563 1126)">
   <path d="M13.6612-72.5204L104.628-72.5204Q105.192-72.5204 105.518-72.8455Q105.845-73.1705 105.845-73.7335Q105.845-74.2485 105.518-74.5735Q105.192-74.8985 104.628-74.8985L13.6612-74.8985Q13.1012-74.8985 12.7762-74.5735Q12.4512-74.2485 12.4512-73.7335Q12.4512-73.1705 12.7762-72.8455Q13.1012-72.5204 13.6612-72.5204ZM13.6612-46.8437L104.628-46.8437Q105.192-46.8437 105.518-47.1687Q105.845-47.4937 105.845-48.0568Q105.845-48.5748 105.518-48.8983Q105.192-49.2218 104.628-49.2218L13.6612-49.2218Q13.1012-49.2218 12.7762-48.8983Q12.4512-48.5748 12.4512-48.0568Q12.4512-47.4937 12.7762-47.1687Q13.1012-46.8437 13.6612-46.8437ZM13.6612-21.167L104.628-21.167Q105.192-21.167 105.518-21.492Q105.845-21.817 105.845-22.3351Q105.845-22.8981 105.518-23.2216Q105.192-23.5451 104.628-23.5451L13.6612-23.5451Q13.1012-23.5451 12.7762-23.2216Q12.4512-22.8981 12.4512-22.3351Q12.4512-21.817 12.7762-21.492Q13.1012-21.167 13.6612-21.167ZM13.6612 4.50668L60.9123 4.50668Q61.4723 4.50668 61.7989 4.1832Q62.1254 3.85971 62.1254 3.34167Q62.1254 2.77863 61.7989 2.45361Q61.4723 2.1286 60.9123 2.1286L13.6612 2.1286Q13.1012 2.1286 12.7762 2.45361Q12.4512 2.77863 12.4512 3.34167Q12.4512 3.85971 12.7762 4.1832Q13.1012 4.50668 13.6612 4.50668Z"/>
  </g>
  <g id="Black-S" transform="matrix(1 0 0 1 2879.69 696)">
   <path d="M15.8691-60.2539L91.5527-60.2539Q94.1406-60.2539 95.8984-62.1826Q97.6562-64.1113 97.6562-66.6016Q97.6562-69.1895 95.8984-71.0693Q94.1406-72.9492 91.5527-72.9492L15.8691-72.9492Q13.3301-72.9492 11.5479-71.0449Q9.76562-69.1406 9.76562-66.6016Q9.76562-64.209 11.5479-62.2314Q13.3301-60.2539 15.8691-60.2539ZM15.8691-40.1855L91.5527-40.1855Q94.1406-40.1855 95.8984-42.1143Q97.6562-44.043 97.6562-46.5332Q97.6562-49.1211 95.8984-51.001Q94.1406-52.8809 91.5527-52.8809L15.8691-52.8809Q13.3301-52.8809 11.5479-50.9766Q9.76562-49.0723 9.76562-46.5332Q9.76562-44.1406 11.5479-42.1631Q13.3301-40.1855 15.8691-40.1855ZM15.8691-20.0684L91.5527-20.0684Q94.1406-20.0684 95.8984-21.9971Q97.6562-23.9258 97.6562-26.416Q97.6562-29.0039 95.8984-30.8838Q94.1406-32.7637 91.5527-32.7637L15.8691-32.7637Q13.3301-32.7637 11.5479-30.8594Q9.76562-28.9551 9.76562-26.416Q9.76562-24.0234 11.5479-22.0459Q13.3301-20.0684 15.8691-20.0684ZM15.8691 0L52.8809 0Q55.4688 0 57.2266-1.92871Q58.9844-3.85742 58.9844-6.34766Q58.9844-8.93555 57.2266-10.8154Q55.4688-12.6953 52.8809-12.6953L15.8691-12.6953Q13.3301-12.6953 11.5479-10.791Q9.76562-8.88672 9.76562-6.34766Q9.76562-3.95508 11.5479-1.97754Q13.3301 0 15.8691 0Z"/>
  </g>
  <g id="Heavy-S" transform="matrix(1 0 0 1 2584.16 696)">
   <path d="M15.2008-60.7033L89.8354-60.7033Q92.1471-60.7033 93.7202-62.4016Q95.2934-64.0999 95.2934-66.3246Q95.2934-68.6249 93.7202-70.2858Q92.1471-71.9467 89.8354-71.9467L15.2008-71.9467Q12.9379-71.9467 11.3518-70.2671Q9.76562-68.5875 9.76562-66.3246Q9.76562-64.1747 11.3518-62.439Q12.9379-60.7033 15.2008-60.7033ZM15.2008-40.6349L89.8354-40.6349Q92.1471-40.6349 93.7202-42.3389Q95.2934-44.043 95.2934-46.2685Q95.2934-48.568 93.7202-50.2289Q92.1471-51.8898 89.8354-51.8898L15.2008-51.8898Q12.9379-51.8898 11.3518-50.2102Q9.76562-48.5306 9.76562-46.2685Q9.76562-44.1177 11.3518-42.3763Q12.9379-40.6349 15.2008-40.6349ZM15.2008-20.5406L89.8354-20.5406Q92.1471-20.5406 93.7202-22.2446Q95.2934-23.9487 95.2934-26.1742Q95.2934-28.4737 93.7202-30.1346Q92.1471-31.7955 89.8354-31.7955L15.2008-31.7955Q12.9379-31.7955 11.3518-30.1159Q9.76562-28.4363 9.76562-26.1742Q9.76562-24.0234 11.3518-22.282Q12.9379-20.5406 15.2008-20.5406ZM15.2008-0.483704L53.3188-0.483704Q55.6183-0.483704 57.1918-2.18201Q58.7654-3.88031 58.7654-6.11725Q58.7654-8.41675 57.1918-10.0777Q55.6183-11.7386 53.3188-11.7386L15.2008-11.7386Q12.9379-11.7386 11.3518-10.059Q9.76562-8.37936 9.76562-6.11725Q9.76562-3.95508 11.3518-2.21939Q12.9379-0.483704 15.2008-0.483704Z"/>
  </g>
  <g id="Bold-S" transform="matrix(1 0 0 1 2288.77 696)">
   <path d="M14.4531-61.2061L87.915-61.2061Q89.917-61.2061 91.2842-62.6465Q92.6514-64.0869 92.6514-66.0156Q92.6514-67.9932 91.2842-69.4092Q89.917-70.8252 87.915-70.8252L14.4531-70.8252Q12.5-70.8252 11.1328-69.397Q9.76562-67.9688 9.76562-66.0156Q9.76562-64.1357 11.1328-62.6709Q12.5-61.2061 14.4531-61.2061ZM14.4531-41.1377L87.915-41.1377Q89.917-41.1377 91.2842-42.5903Q92.6514-44.043 92.6514-45.9717Q92.6514-47.9492 91.2842-49.3652Q89.917-50.7812 87.915-50.7812L14.4531-50.7812Q12.5-50.7812 11.1328-49.353Q9.76562-47.9248 9.76562-45.9717Q9.76562-44.0918 11.1328-42.6147Q12.5-41.1377 14.4531-41.1377ZM14.4531-21.0693L87.915-21.0693Q89.917-21.0693 91.2842-22.522Q92.6514-23.9746 92.6514-25.9033Q92.6514-27.8809 91.2842-29.2969Q89.917-30.7129 87.915-30.7129L14.4531-30.7129Q12.5-30.7129 11.1328-29.2847Q9.76562-27.8564 9.76562-25.9033Q9.76562-24.0234 11.1328-22.5464Q12.5-21.0693 14.4531-21.0693ZM14.4531-1.02539L53.8086-1.02539Q55.7861-1.02539 57.1533-2.46582Q58.5205-3.90625 58.5205-5.85938Q58.5205-7.83691 57.1533-9.25293Q55.7861-10.6689 53.8086-10.6689L14.4531-10.6689Q12.5-10.6689 11.1328-9.24072Q9.76562-7.8125 9.76562-5.85938Q9.76562-3.95508 11.1328-2.49023Q12.5-1.02539 14.4531-1.02539Z"/>
  </g>
  <g id="Semibold-S" transform="matrix(1 0 0 1 1992.97 696)">
   <path d="M13.9374-61.5524L86.5906-61.5524Q88.3797-61.5524 89.6046-62.8151Q90.8295-64.0778 90.8295-65.802Q90.8295-67.5575 89.6046-68.8049Q88.3797-70.0523 86.5906-70.0523L13.9374-70.0523Q12.1979-70.0523 10.9818-68.7973Q9.76562-67.5423 9.76562-65.802Q9.76562-64.109 10.9818-62.8307Q12.1979-61.5524 13.9374-61.5524ZM13.9374-41.4841L86.5906-41.4841Q88.3797-41.4841 89.6046-42.7635Q90.8295-44.043 90.8295-45.7672Q90.8295-47.5227 89.6046-48.7698Q88.3797-50.0168 86.5906-50.0168L13.9374-50.0168Q12.1979-50.0168 10.9818-48.7621Q9.76562-47.5075 9.76562-45.7672Q9.76562-44.0742 10.9818-42.7792Q12.1979-41.4841 13.9374-41.4841ZM13.9374-21.434L86.5906-21.434Q88.3797-21.434 89.6046-22.7131Q90.8295-23.9922 90.8295-25.7164Q90.8295-27.4719 89.6046-28.7193Q88.3797-29.9667 86.5906-29.9667L13.9374-29.9667Q12.1979-29.9667 10.9818-28.7117Q9.76562-27.4567 9.76562-25.7164Q9.76562-24.0234 10.9818-22.7287Q12.1979-21.434 13.9374-21.434ZM13.9374-1.39847L54.1466-1.39847Q55.9013-1.39847 57.1266-2.66113Q58.3519-3.9238 58.3519-5.68161Q58.3519-7.43713 57.1266-8.68416Q55.9013-9.93118 54.1466-9.93118L13.9374-9.93118Q12.1979-9.93118 10.9818-8.67615Q9.76562-7.42111 9.76562-5.68161Q9.76562-3.95508 10.9818-2.67677Q12.1979-1.39847 13.9374-1.39847Z"/>
  </g>
  <g id="Medium-S" transform="matrix(1 0 0 1 1696.95 696)">
   <path d="M13.5468-61.8156L85.5865-61.8156Q87.2139-61.8156 88.3312-62.9436Q89.4485-64.0717 89.4485-65.6403Q89.4485-67.2272 88.3312-68.3464Q87.2139-69.4656 85.5865-69.4656L13.5468-69.4656Q11.969-69.4656 10.8673-68.3422Q9.76562-67.2188 9.76562-65.6403Q9.76562-64.0892 10.8673-62.9524Q11.969-61.8156 13.5468-61.8156ZM13.5468-41.7473L85.5865-41.7473Q87.2139-41.7473 88.3312-42.8951Q89.4485-44.043 89.4485-45.6123Q89.4485-47.1992 88.3312-48.3185Q87.2139-49.4377 85.5865-49.4377L13.5468-49.4377Q11.969-49.4377 10.8673-48.3139Q9.76562-47.1901 9.76562-45.6123Q9.76562-44.0605 10.8673-42.9039Q11.969-41.7473 13.5468-41.7473ZM13.5468-21.7102L85.5865-21.7102Q87.2139-21.7102 88.3312-22.858Q89.4485-24.0059 89.4485-25.5753Q89.4485-27.1622 88.3312-28.2814Q87.2139-29.4006 85.5865-29.4006L13.5468-29.4006Q11.969-29.4006 10.8673-28.2768Q9.76562-27.153 9.76562-25.5753Q9.76562-24.0234 10.8673-22.8668Q11.969-21.7102 13.5468-21.7102ZM13.5468-1.68152L54.4022-1.68152Q55.9891-1.68152 57.1064-2.80952Q58.2237-3.93753 58.2237-5.54657Q58.2237-7.13348 57.1064-8.25272Q55.9891-9.37195 54.4022-9.37195L13.5468-9.37195Q11.969-9.37195 10.8673-8.24852Q9.76562-7.12509 9.76562-5.54657Q9.76562-3.95508 10.8673-2.8183Q11.969-1.68152 13.5468-1.68152Z"/>
  </g>
  <g id="Regular-S" transform="matrix(1 0 0 1 1401.14 696)">
   <path d="M13.0371-62.1582L84.2773-62.1582Q85.6934-62.1582 86.6699-63.1104Q87.6465-64.0625 87.6465-65.4297Q87.6465-66.7969 86.6699-67.749Q85.6934-68.7012 84.2773-68.7012L13.0371-68.7012Q11.6699-68.7012 10.7178-67.749Q9.76562-66.7969 9.76562-65.4297Q9.76562-64.0625 10.7178-63.1104Q11.6699-62.1582 13.0371-62.1582ZM13.0371-42.0898L84.2773-42.0898Q85.6934-42.0898 86.6699-43.0664Q87.6465-44.043 87.6465-45.4102Q87.6465-46.7773 86.6699-47.7295Q85.6934-48.6816 84.2773-48.6816L13.0371-48.6816Q11.6699-48.6816 10.7178-47.7295Q9.76562-46.7773 9.76562-45.4102Q9.76562-44.043 10.7178-43.0664Q11.6699-42.0898 13.0371-42.0898ZM13.0371-22.0703L84.2773-22.0703Q85.6934-22.0703 86.6699-23.0469Q87.6465-24.0234 87.6465-25.3906Q87.6465-26.7578 86.6699-27.71Q85.6934-28.6621 84.2773-28.6621L13.0371-28.6621Q11.6699-28.6621 10.7178-27.71Q9.76562-26.7578 9.76562-25.3906Q9.76562-24.0234 10.7178-23.0469Q11.6699-22.0703 13.0371-22.0703ZM13.0371-2.05078L54.7363-2.05078Q56.1035-2.05078 57.0801-3.00293Q58.0566-3.95508 58.0566-5.37109Q58.0566-6.73828 57.0801-7.69043Q56.1035-8.64258 54.7363-8.64258L13.0371-8.64258Q11.6699-8.64258 10.7178-7.69043Q9.76562-6.73828 9.76562-5.37109Q9.76562-3.95508 10.7178-3.00293Q11.6699-2.05078 13.0371-2.05078Z"/>
  </g>
  <g id="Light-S" transform="matrix(1 0 0 1 1105.16 696)">
   <path d="M12.3108-62.8693L83.5663-62.8693Q84.6794-62.8693 85.429-63.6021Q86.1786-64.3349 86.1786-65.4144Q86.1786-66.494 85.429-67.2268Q84.6794-67.9596 83.5663-67.9596L12.3108-67.9596Q11.2312-67.9596 10.4984-67.2268Q9.76562-66.494 9.76562-65.4144Q9.76562-64.3349 10.4984-63.6021Q11.2312-62.8693 12.3108-62.8693ZM12.3108-42.7864L83.5663-42.7864Q84.6794-42.7864 85.429-43.5356Q86.1786-44.2848 86.1786-45.3644Q86.1786-46.4447 85.429-47.1771Q84.6794-47.9095 83.5663-47.9095L12.3108-47.9095Q11.2312-47.9095 10.4984-47.1771Q9.76562-46.4447 9.76562-45.3644Q9.76562-44.2848 10.4984-43.5356Q11.2312-42.7864 12.3108-42.7864ZM12.3108-22.7364L83.5663-22.7364Q84.6794-22.7364 85.429-23.4859Q86.1786-24.2355 86.1786-25.3151Q86.1786-26.3794 85.429-27.1194Q84.6794-27.8595 83.5663-27.8595L12.3108-27.8595Q11.2312-27.8595 10.4984-27.1194Q9.76562-26.3794 9.76562-25.3151Q9.76562-24.2355 10.4984-23.4859Q11.2312-22.7364 12.3108-22.7364ZM12.3108-2.68631L52.5566-2.68631Q53.6209-2.68631 54.3781-3.41911Q55.1353-4.15192 55.1353-5.26505Q55.1353-6.32935 54.3781-7.06978Q53.6209-7.81021 52.5566-7.81021L12.3108-7.81021Q11.2312-7.81021 10.4984-7.06978Q9.76562-6.32935 9.76562-5.26505Q9.76562-4.15192 10.4984-3.41911Q11.2312-2.68631 12.3108-2.68631Z"/>
  </g>
  <g id="Thin-S" transform="matrix(1 0 0 1 809.421 696)">
   <path d="M11.3495-63.8107L82.6248-63.8107Q83.3382-63.8107 83.7872-64.2529Q84.2361-64.695 84.2361-65.3946Q84.2361-66.0934 83.7872-66.5359Q83.3382-66.9785 82.6248-66.9785L11.3495-66.9785Q10.6506-66.9785 10.2081-66.5359Q9.76562-66.0934 9.76562-65.3946Q9.76562-64.695 10.2081-64.2529Q10.6506-63.8107 11.3495-63.8107ZM11.3495-43.7073L82.6248-43.7073Q83.3382-43.7073 83.7872-44.1563Q84.2361-44.6053 84.2361-45.3049Q84.2361-46.0037 83.7872-46.4462Q83.3382-46.8887 82.6248-46.8887L11.3495-46.8887Q10.6506-46.8887 10.2081-46.4462Q9.76562-46.0037 9.76562-45.3049Q9.76562-44.6053 10.2081-44.1563Q10.6506-43.7073 11.3495-43.7073ZM11.3495-23.6168L82.6248-23.6168Q83.3382-23.6168 83.7872-24.0662Q84.2361-24.5155 84.2361-25.2151Q84.2361-25.8789 83.7872-26.339Q83.3382-26.799 82.6248-26.799L11.3495-26.799Q10.6506-26.799 10.2081-26.339Q9.76562-25.8789 9.76562-25.2151Q9.76562-24.5155 10.2081-24.0662Q10.6506-23.6168 11.3495-23.6168ZM11.3495-3.52707L49.6742-3.52707Q50.338-3.52707 50.8049-3.96957Q51.2718-4.41208 51.2718-5.12466Q51.2718-5.78918 50.8049-6.24924Q50.338-6.70929 49.6742-6.70929L11.3495-6.70929Q10.6506-6.70929 10.2081-6.24924Q9.76562-5.78918 9.76562-5.12466Q9.76562-4.41208 10.2081-3.96957Q10.6506-3.52707 11.3495-3.52707Z"/>
  </g>
  <g id="Ultralight-S" transform="matrix(1 0 0 1 513.207 696)">
   <path d="M10.8574-64.2921L82.1434-64.2921Q82.6508-64.2921 82.9464-64.5859Q83.242-64.8796 83.242-65.3839Q83.242-65.889 82.9464-66.1827Q82.6508-66.4764 82.1434-66.4764L10.8574-66.4764Q10.3531-66.4764 10.0594-66.1827Q9.76562-65.889 9.76562-65.3839Q9.76562-64.8796 10.0594-64.5859Q10.3531-64.2921 10.8574-64.2921ZM10.8574-44.1788L82.1434-44.1788Q82.6508-44.1788 82.9464-44.474Q83.242-44.7693 83.242-45.2736Q83.242-45.7787 82.9464-46.0724Q82.6508-46.3661 82.1434-46.3661L10.8574-46.3661Q10.3531-46.3661 10.0594-46.0724Q9.76562-45.7787 9.76562-45.2736Q9.76562-44.7693 10.0594-44.474Q10.3531-44.1788 10.8574-44.1788ZM10.8574-24.0685L82.1434-24.0685Q82.6508-24.0685 82.9464-24.3637Q83.242-24.659 83.242-25.1633Q83.242-25.6226 82.9464-25.9388Q82.6508-26.255 82.1434-26.255L10.8574-26.255Q10.3531-26.255 10.0594-25.9388Q9.76562-25.6226 9.76562-25.1633Q9.76562-24.659 10.0594-24.3637Q10.3531-24.0685 10.8574-24.0685ZM10.8574-3.95813L48.1972-3.95813Q48.6565-3.95813 48.9746-4.25186Q49.2928-4.54559 49.2928-5.05295Q49.2928-5.51224 48.9746-5.82848Q48.6565-6.14471 48.1972-6.14471L10.8574-6.14471Q10.3531-6.14471 10.0594-5.82848Q9.76562-5.51224 9.76562-5.05295Q9.76562-4.54559 10.0594-4.25186Q10.3531-3.95813 10.8574-3.95813Z"/>
  </g>
 </g>
</svg>
